// arrow right
<svg width="24" height="24" viewBox="0 0 24 24" fill="none" xmlns="http://www.w3.org/2000/svg">
<path d="M15 15L15 17C15 17.961 16.2234 18.3688 16.8 17.6L20.55 12.6C20.8167 12.2444 20.8167 11.7556 20.55 11.4L16.8 6.4C16.2234 5.63119 15 6.03899 15 7L15 11C15 11.5523 14.5523 12 14 12L3 12" stroke="black" stroke-linecap="round" stroke-linejoin="round"/>
</svg>

//arrow left
<svg width="24" height="24" viewBox="0 0 24 24" fill="none" xmlns="http://www.w3.org/2000/svg">
<path d="M9 15L9 17C9 17.961 7.77661 18.3688 7.2 17.6L3.45 12.6C3.18333 12.2444 3.18333 11.7556 3.45 11.4L7.2 6.4C7.77661 5.63119 9 6.03899 9 7L9 11C9 11.5523 9.44772 12 10 12L21 12" stroke="black" stroke-linecap="round" stroke-linejoin="round"/>
</svg>

//arrow down
<svg width="24" height="24" viewBox="0 0 24 24" fill="none" xmlns="http://www.w3.org/2000/svg">
<path d="M15 15L17 15C17.961 15 18.3688 16.2234 17.6 16.8L12.6 20.55C12.2444 20.8167 11.7556 20.8167 11.4 20.55L6.4 16.8C5.63119 16.2234 6.03899 15 7 15L11 15C11.5523 15 12 14.5523 12 14L12 3" stroke="black" stroke-linecap="round" stroke-linejoin="round"/>
</svg>


//arrow up
<svg width="24" height="24" viewBox="0 0 24 24" fill="none" xmlns="http://www.w3.org/2000/svg">
<path d="M9 9H7C6.03899 9 5.63119 7.77661 6.4 7.2L11.4 3.45C11.7556 3.18333 12.2444 3.18333 12.6 3.45L17.6 7.2C18.3688 7.77661 17.961 9 17 9H13C12.4477 9 12 9.44772 12 10L12 21" stroke="black" stroke-linecap="round" stroke-linejoin="round"/>
</svg>

//arrow left up
<svg width="24" height="24" viewBox="0 0 24 24" fill="none" xmlns="http://www.w3.org/2000/svg">
<g clip-path="url(#clip0_416_198)">
<path d="M7.7573 12L6.34309 13.4142C5.66355 14.0938 4.51012 13.5171 4.64603 12.5657L5.52991 6.37852C5.59277 5.93854 5.93846 5.59284 6.37844 5.52999L12.5656 4.6461C13.517 4.5102 14.0937 5.66362 13.4142 6.34316L10.5857 9.17159C10.1952 9.56211 10.1952 10.1953 10.5857 10.5858L18.3639 18.364" stroke="black" stroke-linecap="round" stroke-linejoin="round"/>
</g>
<defs>
<clipPath id="clip0_416_198">
<rect width="24" height="24" fill="white"/>
</clipPath>
</defs>
</svg>

//arrow right down
<svg width="24" height="24" viewBox="0 0 24 24" fill="none" xmlns="http://www.w3.org/2000/svg">
<g clip-path="url(#clip0_416_204)">
<path d="M16.2427 12L17.6569 10.5858C18.3365 9.90623 19.4899 10.4829 19.354 11.4343L18.4701 17.6215C18.4072 18.0615 18.0615 18.4072 17.6216 18.47L11.4344 19.3539C10.483 19.4898 9.90631 18.3364 10.5858 17.6568L13.4143 14.8284C13.8048 14.4379 13.8048 13.8047 13.4143 13.4142L5.6361 5.63602" stroke="black" stroke-linecap="round" stroke-linejoin="round"/>
</g>
<defs>
<clipPath id="clip0_416_204">
<rect width="24" height="24" fill="white"/>
</clipPath>
</defs>
</svg>

//arrow right up
<svg width="24" height="24" viewBox="0 0 24 24" fill="none" xmlns="http://www.w3.org/2000/svg">
<g clip-path="url(#clip0_416_200)">
<path d="M16.2427 12L17.6569 13.4142C18.3365 14.0938 19.4899 13.5171 19.354 12.5657L18.4701 6.37852C18.4072 5.93854 18.0615 5.59284 17.6216 5.52999L11.4344 4.6461C10.483 4.5102 9.90631 5.66362 10.5858 6.34316L13.4143 9.17159C13.8048 9.56211 13.8048 10.1953 13.4143 10.5858L5.6361 18.364" stroke="black" stroke-linecap="round" stroke-linejoin="round"/>
</g>
<defs>
<clipPath id="clip0_416_200">
<rect width="24" height="24" fill="white"/>
</clipPath>
</defs>
</svg>

//arrow left down
<svg width="24" height="24" viewBox="0 0 24 24" fill="none" xmlns="http://www.w3.org/2000/svg">
<g clip-path="url(#clip0_416_202)">
<path d="M7.75742 12L6.34321 10.5858C5.66367 9.90623 4.51025 10.4829 4.64615 11.4343L5.53004 17.6215C5.59289 18.0615 5.93859 18.4072 6.37856 18.47L12.5657 19.3539C13.5171 19.4898 14.0938 18.3364 13.4143 17.6568L10.5859 14.8284C10.1953 14.4379 10.1953 13.8047 10.5859 13.4142L18.364 5.63602" stroke="black" stroke-linecap="round" stroke-linejoin="round"/>
</g>
<defs>
<clipPath id="clip0_416_202">
<rect width="24" height="24" fill="white"/>
</clipPath>
</defs>
</svg>

//sharp arrow right
<svg width="24" height="24" viewBox="0 0 24 24" fill="none" xmlns="http://www.w3.org/2000/svg">
<path d="M14 8.94681V4L21 12L14 20V15C10 15 4 15.5 3 19C3 16 4.98631 9.94681 11.025 9.94681" stroke="black" stroke-linecap="round" stroke-linejoin="round"/>
</svg>

//sharp arrow left
<svg width="24" height="24" viewBox="0 0 24 24" fill="none" xmlns="http://www.w3.org/2000/svg">
<path d="M10 8.94681V4L3 12L10 20V15C14 15 20 15.5 21 19C21 16 19.0137 9.94681 12.975 9.94681" stroke="black" stroke-linecap="round" stroke-linejoin="round"/>
</svg>

//sharp arrow down
<svg width="24" height="24" viewBox="0 0 24 24" fill="none" xmlns="http://www.w3.org/2000/svg">
<path d="M8.94681 14L4 14L12 21L20 14L15 14C15 10 15.5 4 19 3C16 3 9.94681 4.98631 9.94681 11.025" stroke="black" stroke-linecap="round" stroke-linejoin="round"/>
</svg>


//sharp arrow up
<svg width="24" height="24" viewBox="0 0 24 24" fill="none" xmlns="http://www.w3.org/2000/svg">
<path d="M15.0532 10L20 10L12 3L4 10L9 10C9 14 8.5 20 5 21C8 21 14.0532 19.0137 14.0532 12.975" stroke="black" stroke-linecap="round" stroke-linejoin="round"/>
</svg>

//reload left
<svg width="24" height="24" viewBox="0 0 24 24" fill="none" xmlns="http://www.w3.org/2000/svg">
<path d="M4 13C4 17.4183 7.58172 21 12 21C16.4183 21 20 17.4183 20 13C20 8.58172 16.4183 5 12 5C10.5429 5 9.17669 5.38958 8 6.07026L10.5 8.5H5.5L5 3L6.5 4.5" stroke="black" stroke-linecap="round" stroke-linejoin="round"/>
</svg>

//reload right
<svg width="24" height="24" viewBox="0 0 24 24" fill="none" xmlns="http://www.w3.org/2000/svg">
<path d="M20 13C20 17.4183 16.4183 21 12 21C7.58172 21 4 17.4183 4 13C4 8.58172 7.58172 5 12 5C13.4571 5 14.8233 5.38958 16 6.07026L13.5 8.5H18.5L19 3L17.5 4.5" stroke="black" stroke-linecap="round" stroke-linejoin="round"/>
</svg>


//plus
<svg width="24" height="24" viewBox="0 0 24 24" fill="none" xmlns="http://www.w3.org/2000/svg">
<path d="M7 10H5C3.89543 10 3 10.8954 3 12C3 13.1046 3.89543 14 5 14H10V19C10 20.1046 10.8954 21 12 21C13.1046 21 14 20.1046 14 19V14H19C20.1046 14 21 13.1046 21 12C21 10.8954 20.1046 10 19 10L14 10V5C14 3.89543 13.1046 3 12 3C10.8954 3 10 3.89543 10 5V10" stroke="black" stroke-linecap="round" stroke-linejoin="round"/>
</svg>

//minus
<svg width="24" height="24" viewBox="0 0 24 24" fill="none" xmlns="http://www.w3.org/2000/svg">
<path d="M7 10H5C3.89543 10 3 10.8954 3 12C3 13.1046 3.89543 14 5 14L19 14C20.1046 14 21 13.1046 21 12C21 10.8954 20.1046 10 19 10L10 10" stroke="black" stroke-linecap="round" stroke-linejoin="round"/>
</svg>

//thin arrow right
<svg width="20" height="14" viewBox="0 0 20 14" fill="none" xmlns="http://www.w3.org/2000/svg">
<path d="M5.99995 13C4.5 13 1 12.5 1 9C1 5.5 4.99998 5 6.99998 5H19M19 5L15 1M19 5L15 9" stroke="black" stroke-linecap="round" stroke-linejoin="round"/>
</svg>

//thin arrow left
<svg width="24" height="24" viewBox="0 0 24 24" fill="none" xmlns="http://www.w3.org/2000/svg">
<path d="M16 18C17.5 18 21 17.5 21 14C21 10.5 17 10 15 10H3.00002M3.00002 10L7.00002 6M3.00002 10L7.00002 14" stroke="black" stroke-linecap="round" stroke-linejoin="round"/>
</svg>

//wave arrow right
<svg width="24" height="24" viewBox="0 0 24 24" fill="none" xmlns="http://www.w3.org/2000/svg">
<path d="M11.5703 10.5965L7.86105 6.67917C7.58114 6.40185 6.25139 5.00368 7.5811 3.6055C8.91088 2.20724 10.2406 3.60544 10.6838 4.07154L16.0027 9.66442C17.3324 11.0626 17.3324 12.9269 16.0027 14.3252C13.7427 16.7017 11.652 18.7905 10.6838 19.918C10.2406 20.4343 8.91083 21.7823 7.58111 20.3841C6.25139 18.9859 7.58111 17.5876 8.02435 17.1216L11.5703 13.393" stroke="black"/>
</svg>

//wave arrow left
<svg width="24" height="24" viewBox="0 0 24 24" fill="none" xmlns="http://www.w3.org/2000/svg">
<path d="M12.4297 10.5965L16.1389 6.67917C16.4189 6.40185 17.7486 5.00368 16.4189 3.6055C15.0891 2.20724 13.7594 3.60544 13.3162 4.07154L7.99729 9.66442C6.66757 11.0626 6.66757 12.9269 7.99729 14.3252C10.2573 16.7017 12.348 18.7905 13.3162 19.918C13.7594 20.4343 15.0892 21.7823 16.4189 20.3841C17.7486 18.9859 16.4189 17.5876 15.9756 17.1216L12.4297 13.393" stroke="black"/>
</svg>

//wave arrow down
<svg width="24" height="24" viewBox="0 0 24 24" fill="none" xmlns="http://www.w3.org/2000/svg">
<path d="M10.5965 11.5703L6.67917 7.86105C6.40185 7.58114 5.00368 6.25139 3.6055 7.5811C2.20724 8.91088 3.60544 10.2406 4.07154 10.6838L9.66442 16.0027C11.0626 17.3324 12.9269 17.3324 14.3252 16.0027C16.7017 13.7427 18.7905 11.652 19.918 10.6838C20.4343 10.2406 21.7823 8.91084 20.3841 7.58111C18.9859 6.25139 17.5876 7.58111 17.1216 8.02435L13.393 11.5703" stroke="black"/>
</svg>

//wave arrow up
<svg width="24" height="24" viewBox="0 0 24 24" fill="none" xmlns="http://www.w3.org/2000/svg">
<path d="M10.5965 12.4297L6.67917 16.1389C6.40185 16.4189 5.00368 17.7486 3.6055 16.4189C2.20724 15.0891 3.60544 13.7594 4.07154 13.3162L9.66442 7.99729C11.0626 6.66757 12.9269 6.66757 14.3252 7.99729C16.7017 10.2573 18.7905 12.348 19.918 13.3162C20.4343 13.7594 21.7823 15.0892 20.3841 16.4189C18.9859 17.7486 17.5876 16.4189 17.1216 15.9756L13.393 12.4297" stroke="black"/>
</svg>

// multiply
<svg width="24" height="24" viewBox="0 0 24 24" fill="none" xmlns="http://www.w3.org/2000/svg">
<path d="M9.87867 7.05025L7.75735 4.92893C6.9763 4.14788 5.70998 4.14788 4.92893 4.92893C4.14788 5.70997 4.14788 6.9763 4.92893 7.75735L9.17157 12L4.92893 16.2426C4.14788 17.0237 4.14788 18.29 4.92893 19.0711C5.70997 19.8521 6.97631 19.8521 7.75735 19.0711L12 14.8284L16.2426 19.0711C17.0237 19.8521 18.29 19.8521 19.0711 19.0711C19.8521 18.29 19.8521 17.0237 19.0711 16.2426L14.8284 12L19.0711 7.75735C19.8521 6.97631 19.8521 5.70998 19.0711 4.92893C18.29 4.14788 17.0237 4.14788 16.2426 4.92893L12 9.17157" stroke="black" stroke-linecap="round" stroke-linejoin="round"/>
</svg>

// divide
<svg width="24" height="24" viewBox="0 0 24 24" fill="none" xmlns="http://www.w3.org/2000/svg">
<path d="M7.05023 14.1213L5.63602 15.5355C4.85497 16.3165 4.85497 17.5829 5.63601 18.3639C6.41706 19.145 7.68339 19.145 8.46444 18.3639L18.3639 8.46443C19.145 7.68338 19.145 6.41705 18.3639 5.636C17.5829 4.85495 16.3166 4.85495 15.5355 5.636L9.17155 12" stroke="black" stroke-linecap="round" stroke-linejoin="round"/>
</svg>
